<svg xmlns="http://www.w3.org/2000/svg" xmlns:xlink="http://www.w3.org/1999/xlink" width="160" height="64" viewBox="0 0 160 64">
    <defs>
        <rect id="b" width="144" height="48" rx="12"/>
        <filter id="a" width="119.4%" height="158.3%" x="-9.7%" y="-20.8%" filterUnits="objectBoundingBox">
            <feOffset dy="4" in="SourceAlpha" result="shadowOffsetOuter1"/>
            <feGaussianBlur in="shadowOffsetOuter1" result="shadowBlurOuter1" stdDeviation="4"/>
            <feColorMatrix in="shadowBlurOuter1" values="0 0 0 0 0.00392156863 0 0 0 0 0.0588235294 0 0 0 0 0.0823529412 0 0 0 0.08 0"/>
        </filter>
    </defs>
    <g fill="none" fill-rule="evenodd">
        <g transform="translate(8 4)">
            <use fill="#000" filter="url(#a)" xlink:href="#b"/>
            <use fill="#FFF" xlink:href="#b"/>
        </g>
        <g fill="#010F15">
            <path d="M57 34.056c-.43 1.427-1.106 2.854-2.03 4.281-1.42 2.238-2.835 3.357-4.244 3.357-.54 0-1.31-.183-2.312-.548-.946-.366-1.777-.548-2.493-.548-.671 0-1.453.188-2.345.565-.891.388-1.618.582-2.179.582-1.673 0-3.33-1.478-4.97-4.435C34.81 34.33 34 31.459 34 28.696c0-2.603.622-4.738 1.866-6.404 1.233-1.644 2.796-2.466 4.689-2.466.792 0 1.767.171 2.922.514 1.145.342 1.905.513 2.279.513.495 0 1.282-.194 2.361-.582 1.123-.388 2.075-.582 2.856-.582 1.31 0 2.483.37 3.517 1.113.573.41 1.145.982 1.717 1.712-.87.765-1.497 1.439-1.882 2.021a6.256 6.256 0 0 0-1.073 3.545c0 1.415.38 2.688 1.14 3.819.759 1.13 1.628 1.849 2.608 2.157zM50.792 13.97c0 .697-.16 1.473-.479 2.33-.33.855-.842 1.643-1.536 2.362-.594.617-1.188 1.028-1.783 1.233-.407.126-.98.223-1.717.291.033-1.7.462-3.168 1.288-4.4.815-1.222 2.19-2.067 4.128-2.535.01.034.025.097.041.188.017.092.03.154.041.189 0 .045.003.102.009.171.005.068.008.126.008.171z"/>
            <text font-family="HelveticaNeue-Medium, Helvetica Neue" font-size="8" font-weight="400" transform="translate(34 11)">
                <tspan x="31" y="8">PRENESI IZ</tspan>
            </text>
            <text font-family="HelveticaNeue-Bold, Helvetica Neue" font-size="13" font-weight="bold" transform="translate(34 11)">
                <tspan x="31" y="22">App Store</tspan>
            </text>
        </g>
    </g>
</svg>
