<svg xmlns="http://www.w3.org/2000/svg" width="1440" height="431" viewBox="0 0 1440 431">
    <g fill="#0B9FDA" fill-rule="evenodd">
        <path fill-opacity=".1" d="M1516.972 132.542s-7.53-91.325-321.05 18.807c-313.52 110.133-382.478 61.681-493.74 27.037-111.263-34.644-195.74-97.897-394.755 6.161C108.41 288.605-88 117.964-88 117.964v273.52s273.51 93.512 409.934-7.168c136.423-100.68 236.85-210.23 593.31-59.875 356.46 150.356 316.336-101.935 549.6-61.13 233.264 40.806 52.128-130.77 52.128-130.77z"/>
        <path fill-opacity=".125" d="M1579.667 241.89s-8.8 25.977-375.199-5.349c-366.398-31.325-446.986-17.544-577.014-7.69-130.028 9.854-228.753 27.845-461.335-1.752C-66.46 197.502-296 246.037-296 246.037V168.24s319.641-26.597 479.074 2.04c159.432 28.636 276.798 59.795 693.378 17.03 416.58-42.766 369.689 28.993 642.295 17.387 272.606-11.606 60.92 37.195 60.92 37.195z" opacity=".491"/>
        <path fill-opacity=".005" d="M1660.956 78.984s-29.667-244.32-319.082-11.204c-289.415 233.115-797.215-90.787-1017.06 13.169C104.969 184.905-112 64.42-112 64.42v273.253s213.211 43.43 363.913-57.152C402.615 179.941 504.662 100.492 898.43 250.7c393.769 150.208 447.264-81.84 704.942-41.074 257.679 40.766 57.584-130.642 57.584-130.642z"/>
    </g>
</svg>
