<svg xmlns="http://www.w3.org/2000/svg" width="1440" height="372" viewBox="0 0 1440 372">
    <defs>
        <linearGradient id="a" x1="66.864%" x2="1.323%" y1="16.024%" y2="175.411%">
            <stop offset="0%" stop-color="#0B9FDA"/>
            <stop offset="100%" stop-color="#409243"/>
        </linearGradient>
    </defs>
    <g fill="url(#a)" fill-rule="evenodd" opacity=".043" transform="translate(0 -2771)">
        <path d="M1589.835 2975.5c-129.823-.913-292.866-.76-465.71 0 172.844.76 335.887.913 465.71 0zM-69 2975.5v-30.302c66.309-46.12 192.633-71.202 328.674-71.202 78.57 0 160.404 8.372 235.758 25.89 75.355 17.51 157.188 25.883 235.759 25.883 136.041 0 262.342-78.81 328.628-124.931 66.285-46.12 168.186 73.158 304.181 73.158 78.594 0 184.78-193.63 260.158-176.106 74.5 17.325 330.663 18.447 252.006 24.013 0 0-17.043 184.367-10.393 246.198 8.103-1.045 11.732-2.21 10.393-3.502-26.85-25.943 312.6 212.498 312.6 212.498 78.657 5.566-177.507 6.688-252.005 24.013C1861.38 3218.635 1779.594 3227 1701 3227c-135.995 0-262.296-82.718-328.581-128.838-66.286-46.12-505.187-72.931-641.228-72.931-78.57 0-160.404 8.372-235.759 25.883-75.354 17.518-157.187 25.89-235.758 25.89-136.041 0-262.365-25.081-328.674-71.202V2975.5z"/>
        <path d="M1549.73 2938.002c0 .578-1865.73 0-1865.73 0v21.886c63.6 24.497 184.766 37.82 315.252 37.82 75.362 0 153.853-4.448 226.13-13.753 72.279-9.3 150.77-13.748 226.132-13.748 130.486 0 251.629 41.862 315.207 66.36C830.3 3061.062 951.443 3105 1081.885 3105c75.384 0 153.83-4.443 226.13-13.752 71.457-9.202 317.16-9.798 241.715-12.755v-140.491zm.04-.004v-140.491c75.446-2.957-170.262-3.553-241.72-12.755-72.301-9.309-150.75-13.752-226.136-13.752-130.444 0-251.59 43.937-315.17 68.434-63.58 24.497-184.725 66.359-315.214 66.359-75.364 0-153.857-4.447-226.136-13.748-72.279-9.305-150.772-13.752-226.135-13.752-130.489 0-251.657 13.322-315.259 37.82v21.885s1865.77-.578 1865.77 0z"/>
    </g>
</svg>
