<svg xmlns="http://www.w3.org/2000/svg" xmlns:xlink="http://www.w3.org/1999/xlink" width="1134" height="743" viewBox="0 0 1134 743">
    <defs>
        <rect id="b" width="203" height="63" rx="16"/>
        <filter id="a" width="113.8%" height="144.4%" x="-6.9%" y="-15.9%" filterUnits="objectBoundingBox">
            <feOffset dy="4" in="SourceAlpha" result="shadowOffsetOuter1"/>
            <feGaussianBlur in="shadowOffsetOuter1" result="shadowBlurOuter1" stdDeviation="4"/>
            <feColorMatrix in="shadowBlurOuter1" values="0 0 0 0 0.00392156863 0 0 0 0 0.0588235294 0 0 0 0 0.0823529412 0 0 0 0.08 0"/>
        </filter>
    </defs>
    <g fill="none" fill-rule="evenodd">
        <g opacity=".4">
            <path fill="#010F15" fill-opacity=".03" d="M1118.644 155.739L1105.527 135l-12.623-7.706-6.803-4.951-2.684-7.217 3.129-4.955 6.807-3.183 4.971-4.955-2.283-9.947-5.42-3.61-6.76-.457-4.971-2.225v-8.586l-4.964.884-3.177-4.07-3.14-5.856-4.075-4.972-4.968-14.886-.897-1.789 1.338-5.856 4.527-8.154 2.24-5.856 2.28-6.352.909-4.463-1.848-2.738-5.404-.444-3.145-1.793-7.247-8.586L1047.725 0l-49.237 4.059-14.955-3.61-22.119 13.108-16.245 4.067-2.284 1.337-3.585 3.619.445 1.356 1.35 1.337.448 3.615-2.288 16.239-.444 9.042.444 9.026 4.075 12.653 7.692 4.975 4.075 8.106.905 12.204-6.803-8.594-4.03-2.71-14.463-2.693-24.402-12.209-9.931-2.237-9.944.884-24.402 9.94-9.487.435-27.575-4.07-5.861-3.575-.897 8.102v6.8l-2.28 4.516-3.594 2.677-4.519 1.353-5.42-1.353h-7.688l-7.668 2.278-5.425 4.026-3.617 7.254-1.383 5.864-2.243 4.955-6.762 5.42-10.87 1.825-8.104-4.967-8.153-7.233-10.384-4.071-65.939 3.17-51.529-5.412-20.784 6.765-13.557 18.953-6.759-9.931-4.976-.884-13.108 8.137-7.664.88-4.972-.427-4.523 1.789-5.857 8.574-4.074 8.585-5.425 16.231-6.799 15.359-2.235 1.793-8.145 3.61-9.046 1.79-3.14-2.234-5.858 2.726-2.284 2.694-1.79 3.619-4.087 4.967-2.724 6.316-4.968-.904-1.787.448-7.215 7.693-3.625 2.234-3.622.908-7.66.437-3.626 1.389-5.42 7.645-3.177 9.922-3.177 8.599-6.31 2.69-4.968-4.972-4.074-9.002-4.972-6.78-12.175 2.713-5.865-.892-10.885-4.968-2.232-2.278-.901-2.714-1.835-2.245-3.573-.897-12.228 2.69-76.33-2.245-4.524-1.337-20.32-17.628-5.424-2.702-5.906-1.822h-6.31l-12.186 2.282-5.898-.929-32.95-15.346-10.842-1.793-23.509 4.07h-4.963l-23.954-5.86-5.404-.492v4.075l-.46 3.61-1.343 3.19-2.272 2.69-.456 13.09-4.075 8.141-6.758 3.599-9.054-.453-12.171 1.826-9.042 8.1-7.693 10.828-8.605 9.026L43.38 255.5l-8.586 6.316-4.523 2.27-4.971.44-4.03 4.511-4.972 10.831L9.49 291.14 0 297.015l2.732 4.96 2.252 6.344 2.268 13.073 4.98 6.348 1.333 7.197 3.181 4.523 9.932-1.34-4.968-9.047 5.417 1.797 10.845.897 4.967 2.71 9.94 2.285 6.754 4.98 10.877 10.82 9.01 1.344 10.38-.909 8.602 1.79 2.724 9.49-10.392 18.977-40.243 30.225-8.1 10.84 2.688 3.161.937 3.163-.937 3.598-2.688 3.622-1.84 1.333-5.412 4.976 4.52 5.403 1.83 1.398.457.432.445.456v.9l9.927 11.272 10.849-.9 11.726-5.416 12.223-2.678 6.314 9.931-5.42 20.306-14.018 32.022-1.334 17.632 5.404 10.811 9.948 5.428 12.66 1.34 5.873 1.822 17.6 13.521 24.842 11.304 28.48 48.28 3.61 4.072 5.429 3.162h3.177l.436 1.333-2.72 6.76-14.01 17.637-16.702 1.78-14.018-7.657-17.591 1.79 5.412 6.352 5.425 5.868 3.63 5.412v3.13l-58.744 8.59-7.7-1.797 1.341 4.519 2.288 3.13 2.692 2.29 3.626.44v3.162l-2.247 5.436.889 4.519-.89 2.241 13.97 15.335 46.998-2.25 17.162 10.832L164 738.48l5.449 1.805 19.39 2.714 4.078-2.714 3.174-4.975 5.42-4.972 16.702-7.2 4.523-6.3-7.664-9.043v-5.408l1.35-3.622 2.72-1.79 15.353 3.13 4.971 2.739 4.968 4.951 9.054 6.304 9.443 3.187 9.49.448 9.5-1.838 17.178-8.101 9.039-2.718 8.124 1.821 14.443 7.658 16.746 3.178 16.257-1.385 14.006-8.102 6.767-6.32 14.006-10.411 4.976-8.55 1.79-7.241 1.827-13.497 2.248-6.797 3.18-4.98 9.035-10.378 3.585-5.404 4.52-10.38 2.732-3.165 5.877-2.69 4.062 2.233.902 7.686-.457 9.478.457 6.76 3.177 6.317 4.51 4.971 12.192 9.923 2.72.885 2.247 1.393 2.244 2.677.477 4.067-1.383 9.043v2.697l7.252 5.9 33.44 14.899 5.413 13.953 14.92 3.162 15.351-5.403 6.754-11.712 1.354-10.868h6.359l8.1 5.432 6.358 5.868 8.553.9 4.075 1.79 3.617 3.186 17.64.428 29.823 25.281 16.245 2.278 34.79-13.109h11.735l4.074-.892 3.177-2.718 6.306-9.018 3.622-3.155-18.08-12.204-4.972-8.558-2.688-10.827-2.28-13.545-2.244-6.349-2.728-5.404-.44-4.03 4.518-2.282 2.236-2.245 1.39-4.063 2.236-3.615 10.388-3.186 4.527-2.253 4.968-1.777h7.247l-1.831-4.52-5.87-9.938-6.305-7.682-.91-.9-1.378.444-4.523 1.34-1.794 1.394-.45 2.241-1.337.901-4.527-1.801-3.173-2.278-1.795-2.682-3.618-6.784-3.63-3.595-2.687-1.38-.894-2.25 2.236-5.852 3.173-3.623 14.462-8.137 45.17-14.903 4.524-3.578-.493-4.971-1.33-5.436 1.823-4.976 4.042-1.789 4.074.44 4.07 1.35 4.063.936 3.622-1.369 6.774-5.42 3.614-1.8 23.024 4.07 13.112.909 6.771-1.83 7.247-4.03 3.618-5.428v-7.233l-4.066-10.379-1.387-6.304 1.387-6.349 2.684-6.32 1.839-6.3.445-8.59-.902-26.622 2.688-10.38 4.075-6.348 1.342-5.404-4.964-7.653-4.523-3.186-9.94-4.063-4.519-2.673-9.943-10.38-4.964-11.768v-13.064l4.964-14.935 6.802-12.62 5.874-8.586 7.655-4.071 32.095 2.282 6.762-4.507 7.248-12.225 4.971-3.574 5.417-2.714 5.873-1.357 17.632-.456 23.464-12.641 12.22-2.242 5.86-1.825 7.693-3.598 7.21-4.948 4.985-5.435 2.716-7.233v-6.765l-.893-7.221v-9.49l13.08 2.725 4.066-.904 3.634-2.718 2.688-4.071 3.173-3.138 4.515-.888 3.634 1.789 8.557 8.145 4.972 3.114 5.86 1.365h3.178l13.113-3.154h8.104l1.823-1.821-.437-5.86-1.835-2.246-5.86-4.07-2.24-2.727-.893-4.458.44-8.586-.44-4.079-4.087-14.446-1.374-7.213.477-7.685 10.388-11.72 11.285-4.52 5.42-3.165 7.252-2.242 4.968-5.908 2.688 4.063 2.276-4.063 4.038 3.174 4.523.46 4.52-.46 4.078.46 3.169 2.274 5.873 6.313 3.145 2.22 3.169.449 8.148-.88 3.582.432 3.63 2.286 8.585 6.76-3.177-21.214-12.179-10.38"/>
            <g fill="#0B9FDA" fill-opacity=".25">
                <g opacity=".407">
                    <path d="M987.687 29.783a4.95 4.95 0 1 0 0-9.9 4.95 4.95 0 1 0 0 9.9M972.681 59.789a4.952 4.952 0 1 0 0-9.904 4.952 4.952 0 0 0 0 9.904M1017.694 59.789a4.952 4.952 0 1 0 0-9.904 4.952 4.952 0 0 0 0 9.904M987.687 89.79a4.95 4.95 0 1 0 0-9.9 4.95 4.95 0 1 0 0 9.9M1002.69 89.79a4.95 4.95 0 1 0 0-9.9 4.95 4.95 0 0 0 0 9.9M1017.694 89.79a4.95 4.95 0 1 0 0-9.9 4.951 4.951 0 0 0 0 9.9M957.678 119.793a4.948 4.948 0 0 0 4.95-4.949 4.948 4.948 0 0 0-4.95-4.951 4.948 4.948 0 0 0-4.95 4.951 4.948 4.948 0 0 0 4.95 4.949M957.678 134.793a4.946 4.946 0 0 0 4.95-4.949 4.948 4.948 0 0 0-4.95-4.948 4.948 4.948 0 0 0-4.95 4.948 4.946 4.946 0 0 0 4.95 4.95M837.639 149.796a4.95 4.95 0 1 0 0-9.9 4.952 4.952 0 0 0-4.952 4.949 4.952 4.952 0 0 0 4.952 4.951M852.642 149.796a4.953 4.953 0 0 0 4.956-4.951 4.952 4.952 0 0 0-9.905 0 4.952 4.952 0 0 0 4.95 4.951M792.626 164.8a4.952 4.952 0 1 0-.004-9.904 4.952 4.952 0 0 0 .004 9.903M807.63 164.8a4.952 4.952 0 1 0 0-9.905 4.952 4.952 0 0 0 0 9.904M822.633 164.8a4.952 4.952 0 1 0 0-9.904 4.953 4.953 0 0 0-4.95 4.952 4.953 4.953 0 0 0 4.95 4.951M837.639 164.8a4.952 4.952 0 1 0 0-9.905 4.952 4.952 0 0 0 0 9.904M852.642 164.8a4.954 4.954 0 0 0 4.956-4.952 4.953 4.953 0 0 0-9.905 0 4.953 4.953 0 0 0 4.95 4.951M837.639 179.8a4.95 4.95 0 1 0 0-9.9 4.952 4.952 0 0 0-4.952 4.95 4.952 4.952 0 0 0 4.952 4.95M852.642 179.8a4.952 4.952 0 0 0 4.956-4.95 4.953 4.953 0 0 0-9.905 0 4.951 4.951 0 0 0 4.95 4.95M867.651 179.8a4.951 4.951 0 0 0 0-9.9 4.953 4.953 0 0 0-4.955 4.95 4.952 4.952 0 0 0 4.955 4.95M822.633 194.8a4.95 4.95 0 1 0 0-9.898 4.95 4.95 0 1 0 0 9.898M867.651 224.803a4.951 4.951 0 0 0 0-9.9 4.954 4.954 0 0 0-4.955 4.951 4.952 4.952 0 0 0 4.955 4.949M1002.69 224.803a4.95 4.95 0 1 0 0-9.9 4.95 4.95 0 1 0 0 9.9M852.642 239.806a4.953 4.953 0 0 0 4.956-4.951 4.952 4.952 0 0 0-9.905 0 4.952 4.952 0 0 0 4.95 4.95M1032.7 239.806a4.95 4.95 0 1 0 0-9.9 4.952 4.952 0 0 0-4.952 4.949 4.952 4.952 0 0 0 4.953 4.95"/>
                </g>
                <g opacity=".407">
                    <path d="M132.448 210.129c2.717 0 4.92-2.235 4.92-4.994 0-2.756-2.203-4.991-4.92-4.991s-4.922 2.235-4.922 4.991c0 2.76 2.205 4.994 4.922 4.994M147.359 210.129c2.72 0 4.922-2.235 4.922-4.994 0-2.756-2.203-4.991-4.922-4.991-2.717 0-4.92 2.235-4.92 4.991 0 2.76 2.203 4.994 4.92 4.994M162.27 210.129c2.72 0 4.922-2.235 4.922-4.994 0-2.756-2.202-4.991-4.922-4.991-2.717 0-4.92 2.235-4.92 4.991 0 2.76 2.203 4.994 4.92 4.994M177.184 210.129c2.717 0 4.922-2.235 4.922-4.994 0-2.756-2.205-4.991-4.922-4.991-2.717 0-4.922 2.235-4.922 4.991 0 2.76 2.205 4.994 4.922 4.994M117.534 225.257c2.717 0 4.922-2.234 4.922-4.99 0-2.757-2.205-4.994-4.922-4.994-2.717 0-4.92 2.237-4.92 4.993 0 2.757 2.203 4.991 4.92 4.991M132.448 225.257c2.717 0 4.92-2.234 4.92-4.99 0-2.757-2.203-4.994-4.92-4.994s-4.922 2.237-4.922 4.993c0 2.757 2.205 4.991 4.922 4.991M147.359 225.257c2.72 0 4.922-2.234 4.922-4.99 0-2.757-2.203-4.994-4.922-4.994-2.717 0-4.92 2.237-4.92 4.993 0 2.757 2.203 4.991 4.92 4.991M177.184 225.257c2.717 0 4.922-2.234 4.922-4.99 0-2.757-2.205-4.994-4.922-4.994-2.717 0-4.922 2.237-4.922 4.993 0 2.757 2.205 4.991 4.922 4.991M102.623 240.389c2.717 0 4.919-2.235 4.919-4.994 0-2.756-2.202-4.991-4.92-4.991-2.719 0-4.921 2.235-4.921 4.99 0 2.76 2.202 4.995 4.922 4.995M117.534 240.389c2.717 0 4.922-2.235 4.922-4.994 0-2.756-2.205-4.991-4.922-4.991-2.717 0-4.92 2.235-4.92 4.99 0 2.76 2.203 4.995 4.92 4.995M132.448 240.389c2.717 0 4.92-2.235 4.92-4.994 0-2.756-2.203-4.991-4.92-4.991s-4.922 2.235-4.922 4.99c0 2.76 2.205 4.995 4.922 4.995M147.359 240.389c2.72 0 4.922-2.235 4.922-4.994 0-2.756-2.203-4.991-4.922-4.991-2.717 0-4.92 2.235-4.92 4.99 0 2.76 2.203 4.995 4.92 4.995M162.27 240.389c2.72 0 4.922-2.235 4.922-4.994 0-2.756-2.202-4.991-4.922-4.991-2.717 0-4.92 2.235-4.92 4.99 0 2.76 2.203 4.995 4.92 4.995M177.184 240.389c2.717 0 4.922-2.235 4.922-4.994 0-2.756-2.205-4.991-4.922-4.991-2.717 0-4.922 2.235-4.922 4.99 0 2.76 2.205 4.995 4.922 4.995M102.623 255.52c2.717 0 4.919-2.237 4.919-4.994 0-2.759-2.202-4.993-4.92-4.993-2.719 0-4.921 2.234-4.921 4.993 0 2.757 2.202 4.994 4.922 4.994M117.534 255.52c2.717 0 4.922-2.237 4.922-4.994 0-2.759-2.205-4.993-4.922-4.993-2.717 0-4.92 2.234-4.92 4.993 0 2.757 2.203 4.994 4.92 4.994M132.448 255.52c2.717 0 4.92-2.237 4.92-4.994 0-2.759-2.203-4.993-4.92-4.993s-4.922 2.234-4.922 4.993c0 2.757 2.205 4.994 4.922 4.994M147.359 255.52c2.72 0 4.922-2.237 4.922-4.994 0-2.759-2.203-4.993-4.922-4.993-2.717 0-4.92 2.234-4.92 4.993 0 2.757 2.203 4.994 4.92 4.994M162.27 255.52c2.72 0 4.922-2.237 4.922-4.994 0-2.759-2.202-4.993-4.922-4.993-2.717 0-4.92 2.234-4.92 4.993 0 2.757 2.203 4.994 4.92 4.994"/>
                </g>
                <g opacity=".407">
                    <path d="M492.957 285.114c2.716 0 4.919-2.245 4.919-5.013 0-2.771-2.203-5.015-4.92-5.015-2.719 0-4.921 2.244-4.921 5.015 0 2.768 2.202 5.013 4.922 5.013M507.868 285.114c2.716 0 4.922-2.245 4.922-5.013 0-2.771-2.206-5.015-4.922-5.015-2.717 0-4.92 2.244-4.92 5.015 0 2.768 2.203 5.013 4.92 5.013M522.782 285.114c2.716 0 4.919-2.245 4.919-5.013 0-2.771-2.203-5.015-4.92-5.015-2.719 0-4.921 2.244-4.921 5.015 0 2.768 2.202 5.013 4.922 5.013M492.957 300.31c2.716 0 4.919-2.246 4.919-5.015 0-2.768-2.203-5.012-4.92-5.012-2.719 0-4.921 2.244-4.921 5.012 0 2.769 2.202 5.016 4.922 5.016M507.868 300.31c2.716 0 4.922-2.246 4.922-5.015 0-2.768-2.206-5.012-4.922-5.012-2.717 0-4.92 2.244-4.92 5.012 0 2.769 2.203 5.016 4.92 5.016"/>
                </g>
                <g opacity=".407">
                    <path d="M658.332 299.504c2.735 0 4.953-2.242 4.953-5.004 0-2.762-2.218-5.001-4.953-5.001-2.729 0-4.946 2.239-4.946 5.001 0 2.762 2.217 5.004 4.946 5.004M673.333 299.504c2.729 0 4.946-2.242 4.946-5.004 0-2.762-2.217-5.001-4.946-5.001-2.735 0-4.953 2.239-4.953 5.001 0 2.762 2.218 5.004 4.953 5.004M658.332 314.664c2.735 0 4.953-2.24 4.953-5.001 0-2.765-2.218-5.004-4.953-5.004-2.729 0-4.946 2.239-4.946 5.004 0 2.762 2.217 5.001 4.946 5.001M673.333 314.664c2.729 0 4.946-2.24 4.946-5.001 0-2.765-2.217-5.004-4.946-5.004-2.735 0-4.953 2.239-4.953 5.004 0 2.762 2.218 5.001 4.953 5.001M688.327 314.664c2.732 0 4.95-2.24 4.95-5.001 0-2.765-2.218-5.004-4.95-5.004-2.734 0-4.95 2.239-4.95 5.004 0 2.762 2.216 5.001 4.95 5.001M628.34 329.824c2.735 0 4.95-2.236 4.95-5.001 0-2.762-2.215-5.002-4.95-5.002-2.73 0-4.947 2.24-4.947 5.002 0 2.765 2.218 5.001 4.947 5.001M643.337 329.824c2.735 0 4.95-2.236 4.95-5.001 0-2.762-2.215-5.002-4.95-5.002-2.732 0-4.95 2.24-4.95 5.002 0 2.765 2.218 5.001 4.95 5.001M628.34 344.987c2.735 0 4.95-2.24 4.95-5.004 0-2.762-2.215-5.002-4.95-5.002-2.73 0-4.947 2.24-4.947 5.002 0 2.764 2.218 5.004 4.947 5.004"/>
                </g>
                <g opacity=".407">
                    <path d="M298.477 315.232a4.949 4.949 0 0 0 4.947-4.95 4.95 4.95 0 0 0-4.947-4.954 4.95 4.95 0 0 0-4.95 4.953 4.95 4.95 0 0 0 4.95 4.951M343.465 315.232a4.947 4.947 0 0 0 4.946-4.95 4.948 4.948 0 1 0-9.893 0 4.949 4.949 0 0 0 4.947 4.95M328.47 330.239a4.947 4.947 0 0 0 4.946-4.951 4.949 4.949 0 1 0-9.896 0 4.948 4.948 0 0 0 4.95 4.95M343.465 330.239a4.945 4.945 0 0 0 4.946-4.951 4.947 4.947 0 1 0-9.893 0 4.947 4.947 0 0 0 4.947 4.95M328.47 345.248a4.95 4.95 0 0 0 4.946-4.953 4.949 4.949 0 1 0-9.896 0 4.95 4.95 0 0 0 4.95 4.953M358.46 345.248a4.95 4.95 0 0 0 4.949-4.953 4.949 4.949 0 0 0-9.896 0 4.95 4.95 0 0 0 4.946 4.953M343.465 375.265a4.948 4.948 0 0 0 4.946-4.954 4.947 4.947 0 1 0-9.893 0 4.95 4.95 0 0 0 4.947 4.954M358.46 375.265a4.95 4.95 0 0 0 4.949-4.954 4.949 4.949 0 0 0-9.896 0 4.95 4.95 0 0 0 4.946 4.954"/>
                </g>
                <g opacity=".407">
                    <path d="M553.42 374.365a4.92 4.92 0 1 0 .003-9.84 4.92 4.92 0 0 0-.003 9.84M553.42 404.187a4.92 4.92 0 1 0 .003-9.84 4.92 4.92 0 0 0-.003 9.84M583.245 419.096a4.92 4.92 0 1 0 .003-9.84 4.92 4.92 0 0 0-.003 9.84M598.159 419.096a4.92 4.92 0 0 0 0-9.84 4.92 4.92 0 0 0 0 9.84M613.07 419.096a4.92 4.92 0 1 0 .003-9.84 4.92 4.92 0 0 0-.003 9.84M627.981 419.096a4.92 4.92 0 1 0 .004-9.84 4.92 4.92 0 0 0-.004 9.84M583.245 434.008a4.922 4.922 0 0 0 0-9.843 4.921 4.921 0 0 0 0 9.843M598.159 434.008a4.921 4.921 0 1 0-.004-9.843 4.921 4.921 0 0 0 .004 9.843M583.245 448.92a4.922 4.922 0 0 0 0-9.842 4.92 4.92 0 0 0 0 9.842M598.159 448.92a4.922 4.922 0 0 0 0-9.842 4.921 4.921 0 1 0 0 9.842"/>
                </g>
                <g opacity=".407">
                    <path d="M687.505 404.798c2.732 0 4.95-2.235 4.95-4.994 0-2.756-2.218-4.99-4.95-4.99-2.734 0-4.95 2.234-4.95 4.99 0 2.76 2.216 4.994 4.95 4.994M717.498 404.798c2.732 0 4.947-2.235 4.947-4.994 0-2.756-2.215-4.99-4.947-4.99-2.735 0-4.95 2.234-4.95 4.99 0 2.76 2.215 4.994 4.95 4.994M687.505 419.927c2.732 0 4.95-2.235 4.95-4.994 0-2.754-2.218-4.991-4.95-4.991-2.734 0-4.95 2.237-4.95 4.991 0 2.76 2.216 4.994 4.95 4.994M702.503 419.927c2.73 0 4.947-2.235 4.947-4.994 0-2.754-2.218-4.991-4.947-4.991-2.735 0-4.95 2.237-4.95 4.991 0 2.76 2.215 4.994 4.95 4.994M717.498 419.927c2.732 0 4.947-2.235 4.947-4.994 0-2.754-2.215-4.991-4.947-4.991-2.735 0-4.95 2.237-4.95 4.991 0 2.76 2.215 4.994 4.95 4.994M732.493 419.927c2.734 0 4.95-2.235 4.95-4.994 0-2.754-2.216-4.991-4.95-4.991-2.732 0-4.947 2.237-4.947 4.991 0 2.76 2.215 4.994 4.947 4.994M747.49 435.058c2.732 0 4.947-2.235 4.947-4.994 0-2.756-2.215-4.993-4.947-4.993-2.734 0-4.95 2.237-4.95 4.993 0 2.76 2.216 4.994 4.95 4.994M747.49 450.19c2.732 0 4.947-2.238 4.947-4.997 0-2.754-2.215-4.991-4.947-4.991-2.734 0-4.95 2.237-4.95 4.991 0 2.76 2.216 4.996 4.95 4.996"/>
                </g>
                <g opacity=".407">
                    <path d="M418.531 374.485a4.968 4.968 0 0 0 4.968-4.971 4.967 4.967 0 0 0-9.932 0 4.968 4.968 0 0 0 4.964 4.971M433.583 374.485a4.968 4.968 0 0 0 4.965-4.971 4.967 4.967 0 1 0-9.932 0 4.97 4.97 0 0 0 4.967 4.971M448.633 374.485a4.968 4.968 0 0 0 4.967-4.971 4.967 4.967 0 0 0-9.932 0 4.968 4.968 0 0 0 4.965 4.971M463.685 374.485a4.97 4.97 0 0 0 0-9.94 4.968 4.968 0 0 0-4.968 4.969 4.968 4.968 0 0 0 4.968 4.971M403.482 389.547a4.967 4.967 0 0 0 4.965-4.97 4.966 4.966 0 0 0-9.93 0 4.965 4.965 0 0 0 4.965 4.97M418.531 389.547a4.968 4.968 0 0 0 4.968-4.97 4.968 4.968 0 0 0-4.968-4.97 4.968 4.968 0 0 0-4.965 4.97 4.967 4.967 0 0 0 4.965 4.97M433.583 389.547a4.967 4.967 0 0 0 4.965-4.97 4.968 4.968 0 0 0-4.965-4.97 4.97 4.97 0 0 0 0 9.94M448.633 389.547a4.968 4.968 0 0 0 4.967-4.97 4.968 4.968 0 0 0-4.967-4.97 4.968 4.968 0 0 0-4.965 4.97 4.967 4.967 0 0 0 4.965 4.97M463.685 389.547a4.97 4.97 0 1 0 0-9.94 4.968 4.968 0 0 0-4.968 4.97 4.968 4.968 0 0 0 4.968 4.97M478.735 389.547a4.968 4.968 0 0 0 4.967-4.97 4.968 4.968 0 1 0-9.935 0 4.97 4.97 0 0 0 4.968 4.97M388.432 404.61a4.968 4.968 0 0 0 4.965-4.97 4.967 4.967 0 1 0-9.932 0 4.968 4.968 0 0 0 4.967 4.97M403.482 404.61a4.968 4.968 0 0 0 4.965-4.97 4.965 4.965 0 0 0-9.93 0 4.966 4.966 0 0 0 4.965 4.97M418.531 404.61a4.968 4.968 0 0 0 4.968-4.97 4.967 4.967 0 0 0-9.932 0 4.968 4.968 0 0 0 4.964 4.97M433.583 404.61a4.968 4.968 0 0 0 4.965-4.97 4.967 4.967 0 1 0-9.932 0 4.97 4.97 0 0 0 4.967 4.97M448.633 404.61a4.968 4.968 0 0 0 4.967-4.97 4.967 4.967 0 0 0-9.932 0 4.968 4.968 0 0 0 4.965 4.97M463.685 404.61a4.97 4.97 0 0 0 0-9.94 4.968 4.968 0 0 0-4.968 4.97 4.968 4.968 0 0 0 4.968 4.97M478.735 404.61a4.968 4.968 0 0 0 4.967-4.97 4.968 4.968 0 1 0-9.935 0 4.97 4.97 0 0 0 4.968 4.97M493.787 404.61a4.968 4.968 0 0 0 4.965-4.97 4.967 4.967 0 1 0-9.933 0 4.968 4.968 0 0 0 4.968 4.97M373.38 419.672a4.97 4.97 0 0 0 0-9.94 4.971 4.971 0 0 0 0 9.94M388.432 419.672a4.968 4.968 0 0 0 4.965-4.971 4.969 4.969 0 0 0-4.965-4.969 4.97 4.97 0 0 0-4.967 4.969 4.968 4.968 0 0 0 4.967 4.971M403.482 419.672a4.968 4.968 0 0 0 4.965-4.971 4.969 4.969 0 0 0-4.965-4.969 4.967 4.967 0 0 0-4.965 4.969 4.966 4.966 0 0 0 4.965 4.971M418.531 419.672a4.968 4.968 0 0 0 4.968-4.971 4.97 4.97 0 0 0-4.968-4.969 4.969 4.969 0 0 0-4.965 4.969 4.968 4.968 0 0 0 4.965 4.971M433.583 419.672a4.968 4.968 0 0 0 4.965-4.971 4.969 4.969 0 0 0-4.965-4.969 4.971 4.971 0 0 0 0 9.94M448.633 419.672a4.968 4.968 0 0 0 4.967-4.971 4.97 4.97 0 0 0-4.967-4.969 4.969 4.969 0 0 0-4.965 4.969 4.968 4.968 0 0 0 4.965 4.971M463.685 419.672a4.97 4.97 0 0 0 0-9.94 4.97 4.97 0 0 0-4.968 4.969 4.968 4.968 0 0 0 4.968 4.971M478.735 419.672a4.968 4.968 0 0 0 4.967-4.971 4.97 4.97 0 0 0-4.967-4.969 4.971 4.971 0 0 0 0 9.94M493.787 419.672a4.968 4.968 0 0 0 4.965-4.971 4.969 4.969 0 0 0-4.965-4.969 4.97 4.97 0 0 0-4.968 4.969 4.968 4.968 0 0 0 4.968 4.971M388.432 434.737a4.968 4.968 0 0 0 4.965-4.972 4.97 4.97 0 0 0-4.965-4.971 4.97 4.97 0 0 0-4.967 4.971 4.968 4.968 0 0 0 4.967 4.972M403.482 434.737a4.968 4.968 0 0 0 4.965-4.972 4.97 4.97 0 0 0-4.965-4.971 4.968 4.968 0 0 0-4.965 4.971 4.966 4.966 0 0 0 4.965 4.972M418.531 434.737a4.968 4.968 0 0 0 4.968-4.972 4.97 4.97 0 0 0-4.968-4.971 4.97 4.97 0 0 0-4.965 4.971 4.968 4.968 0 0 0 4.965 4.972M433.583 434.737a4.968 4.968 0 0 0 4.965-4.972 4.97 4.97 0 0 0-4.965-4.971 4.972 4.972 0 0 0 0 9.943M448.633 434.737a4.968 4.968 0 0 0 4.967-4.972 4.97 4.97 0 0 0-4.967-4.971 4.97 4.97 0 0 0-4.965 4.971 4.968 4.968 0 0 0 4.965 4.972M463.685 434.737a4.972 4.972 0 0 0 0-9.943 4.97 4.97 0 0 0-4.968 4.971 4.968 4.968 0 0 0 4.968 4.972M478.735 434.737a4.968 4.968 0 0 0 4.967-4.972 4.97 4.97 0 0 0-4.967-4.971 4.972 4.972 0 0 0 0 9.943M493.787 434.737a4.968 4.968 0 0 0 4.965-4.972 4.97 4.97 0 0 0-4.965-4.971 4.97 4.97 0 0 0-4.968 4.971 4.968 4.968 0 0 0 4.968 4.972M373.38 449.8a4.972 4.972 0 0 0 0-9.942 4.972 4.972 0 0 0 0 9.943M388.432 449.8a4.97 4.97 0 0 0 4.965-4.973 4.969 4.969 0 0 0-4.965-4.97 4.97 4.97 0 0 0-4.967 4.97 4.97 4.97 0 0 0 4.967 4.974M403.482 449.8a4.97 4.97 0 0 0 4.965-4.973 4.969 4.969 0 0 0-4.965-4.97 4.967 4.967 0 0 0-4.965 4.97 4.968 4.968 0 0 0 4.965 4.974M418.531 449.8a4.97 4.97 0 0 0 4.968-4.973 4.97 4.97 0 0 0-4.968-4.97 4.969 4.969 0 0 0-4.965 4.97 4.97 4.97 0 0 0 4.965 4.974M433.583 449.8a4.97 4.97 0 0 0 4.965-4.973 4.969 4.969 0 0 0-4.965-4.97 4.972 4.972 0 0 0 0 9.943M448.633 449.8a4.97 4.97 0 0 0 4.967-4.973 4.97 4.97 0 0 0-4.967-4.97 4.969 4.969 0 0 0-4.965 4.97 4.97 4.97 0 0 0 4.965 4.974M463.685 449.8a4.972 4.972 0 0 0 0-9.942 4.97 4.97 0 0 0-4.968 4.969 4.97 4.97 0 0 0 4.968 4.974M478.735 449.8a4.97 4.97 0 0 0 4.967-4.973 4.97 4.97 0 0 0-4.967-4.97 4.972 4.972 0 0 0 0 9.943M493.787 449.8a4.97 4.97 0 0 0 4.965-4.973 4.969 4.969 0 0 0-4.965-4.97 4.97 4.97 0 0 0-4.968 4.97 4.97 4.97 0 0 0 4.968 4.974M373.38 464.862a4.972 4.972 0 0 0 0-9.943 4.972 4.972 0 0 0 0 9.943M388.432 464.862a4.969 4.969 0 0 0 4.965-4.968 4.97 4.97 0 0 0-4.965-4.975 4.97 4.97 0 0 0-4.967 4.975 4.97 4.97 0 0 0 4.967 4.968M403.482 464.862a4.969 4.969 0 0 0 4.965-4.968 4.97 4.97 0 0 0-4.965-4.975 4.968 4.968 0 0 0-4.965 4.975 4.967 4.967 0 0 0 4.965 4.968M418.531 464.862a4.97 4.97 0 0 0 4.968-4.968 4.97 4.97 0 0 0-4.968-4.975 4.97 4.97 0 0 0-4.965 4.975 4.969 4.969 0 0 0 4.965 4.968M433.583 464.862a4.969 4.969 0 0 0 4.965-4.968 4.97 4.97 0 0 0-4.965-4.975 4.972 4.972 0 0 0 0 9.943M448.633 464.862a4.97 4.97 0 0 0 4.967-4.968 4.97 4.97 0 0 0-4.967-4.975 4.97 4.97 0 0 0-4.965 4.975 4.969 4.969 0 0 0 4.965 4.968M463.685 464.862a4.972 4.972 0 0 0 0-9.943 4.97 4.97 0 0 0-4.968 4.975 4.97 4.97 0 0 0 4.968 4.968M478.735 464.862a4.97 4.97 0 0 0 4.967-4.968 4.97 4.97 0 0 0-4.967-4.975 4.972 4.972 0 0 0 0 9.943M388.432 479.927a4.97 4.97 0 0 0 4.965-4.972 4.968 4.968 0 0 0-4.965-4.971 4.968 4.968 0 0 0-4.967 4.971 4.97 4.97 0 0 0 4.967 4.972M403.482 479.927a4.97 4.97 0 0 0 4.965-4.972 4.966 4.966 0 0 0-9.93 0 4.968 4.968 0 0 0 4.965 4.972M418.531 479.927a4.97 4.97 0 0 0 4.968-4.972 4.968 4.968 0 0 0-4.968-4.971 4.968 4.968 0 0 0-4.965 4.971 4.97 4.97 0 0 0 4.965 4.972M433.583 479.927a4.97 4.97 0 0 0 4.965-4.972 4.968 4.968 0 0 0-4.965-4.971 4.972 4.972 0 0 0 0 9.943M448.633 479.927a4.97 4.97 0 0 0 4.967-4.972 4.968 4.968 0 0 0-4.967-4.971 4.968 4.968 0 0 0-4.965 4.971 4.97 4.97 0 0 0 4.965 4.972M463.685 479.927a4.972 4.972 0 0 0 0-9.943 4.968 4.968 0 0 0-4.968 4.971 4.97 4.97 0 0 0 4.968 4.972M478.735 479.927a4.97 4.97 0 0 0 4.967-4.972 4.968 4.968 0 1 0-9.935 0 4.972 4.972 0 0 0 4.968 4.972M388.432 494.988a4.969 4.969 0 0 0 4.965-4.969 4.968 4.968 0 0 0-4.965-4.971 4.968 4.968 0 0 0-4.967 4.971 4.97 4.97 0 0 0 4.967 4.97M403.482 494.988a4.969 4.969 0 0 0 4.965-4.969 4.966 4.966 0 0 0-9.93 0 4.967 4.967 0 0 0 4.965 4.97M418.531 494.988a4.97 4.97 0 0 0 4.968-4.969 4.968 4.968 0 0 0-4.968-4.971 4.968 4.968 0 0 0-4.965 4.971 4.969 4.969 0 0 0 4.965 4.97M433.583 494.988a4.969 4.969 0 0 0 4.965-4.969 4.968 4.968 0 0 0-4.965-4.971 4.97 4.97 0 0 0 0 9.94M448.633 494.988a4.97 4.97 0 0 0 4.967-4.969 4.968 4.968 0 0 0-4.967-4.971 4.968 4.968 0 0 0-4.965 4.971 4.969 4.969 0 0 0 4.965 4.97M463.685 494.988a4.971 4.971 0 0 0 0-9.94 4.968 4.968 0 0 0-4.968 4.971 4.97 4.97 0 0 0 4.968 4.97"/>
                </g>
                <g opacity=".407">
                    <path d="M403.714 524.274c2.76 0 4.997-2.205 4.997-4.926 0-2.72-2.237-4.923-4.997-4.923-2.763 0-4.997 2.204-4.997 4.923 0 2.721 2.234 4.926 4.997 4.926M418.862 524.274c2.762 0 5-2.205 5-4.926 0-2.72-2.238-4.923-5-4.923-2.76 0-4.998 2.204-4.998 4.923 0 2.721 2.238 4.926 4.998 4.926M418.862 554.12c2.762 0 5-2.202 5-4.923 0-2.722-2.238-4.924-5-4.924-2.76 0-4.998 2.202-4.998 4.924 0 2.721 2.238 4.923 4.998 4.923M373.415 598.894c2.76 0 5-2.204 5-4.926 0-2.718-2.24-4.923-5-4.923s-5 2.205-5 4.923c0 2.722 2.24 4.926 5 4.926M403.714 598.894c2.76 0 4.997-2.204 4.997-4.926 0-2.718-2.237-4.923-4.997-4.923-2.763 0-4.997 2.205-4.997 4.923 0 2.722 2.234 4.926 4.997 4.926"/>
                </g>
                <g opacity=".407">
                    <path d="M297.626 390.152c2.717 0 4.92-2.212 4.92-4.94 0-2.731-2.203-4.943-4.92-4.943-2.719 0-4.921 2.212-4.921 4.943 0 2.728 2.202 4.94 4.921 4.94M297.626 435.08c2.717 0 4.92-2.212 4.92-4.943 0-2.728-2.203-4.943-4.92-4.943-2.719 0-4.921 2.215-4.921 4.943 0 2.73 2.202 4.943 4.921 4.943M282.713 465.03c2.719 0 4.922-2.214 4.922-4.94 0-2.73-2.203-4.945-4.922-4.945-2.717 0-4.922 2.215-4.922 4.946 0 2.725 2.205 4.94 4.922 4.94M312.538 539.907c2.716 0 4.922-2.212 4.922-4.94 0-2.73-2.206-4.943-4.922-4.943-2.717 0-4.92 2.212-4.92 4.943 0 2.728 2.203 4.94 4.92 4.94M282.713 569.858c2.719 0 4.922-2.211 4.922-4.942 0-2.729-2.203-4.94-4.922-4.94-2.717 0-4.922 2.211-4.922 4.94 0 2.73 2.205 4.942 4.922 4.942M267.801 584.832c2.717 0 4.922-2.211 4.922-4.94 0-2.73-2.205-4.942-4.922-4.942-2.719 0-4.921 2.212-4.921 4.942 0 2.729 2.202 4.94 4.921 4.94M237.976 614.784c2.717 0 4.92-2.212 4.92-4.943 0-2.726-2.203-4.94-4.92-4.94-2.716 0-4.922 2.214-4.922 4.94 0 2.73 2.206 4.943 4.922 4.943M252.888 614.784c2.719 0 4.921-2.212 4.921-4.943 0-2.726-2.202-4.94-4.921-4.94-2.717 0-4.92 2.214-4.92 4.94 0 2.73 2.203 4.943 4.92 4.943M267.801 614.784c2.717 0 4.922-2.212 4.922-4.943 0-2.726-2.205-4.94-4.922-4.94-2.719 0-4.921 2.214-4.921 4.94 0 2.73 2.202 4.943 4.921 4.943M252.888 629.76c2.719 0 4.921-2.211 4.921-4.942 0-2.728-2.202-4.943-4.921-4.943-2.717 0-4.92 2.215-4.92 4.943 0 2.73 2.203 4.942 4.92 4.942M312.538 689.663c2.716 0 4.922-2.215 4.922-4.94 0-2.731-2.206-4.943-4.922-4.943-2.717 0-4.92 2.212-4.92 4.943 0 2.725 2.203 4.94 4.92 4.94"/>
                </g>
                <g opacity=".407">
                    <path d="M628.4 645.363c2.762 0 5-2.219 5-4.956 0-2.731-2.238-4.95-5-4.95-2.758 0-4.998 2.219-4.998 4.95 0 2.737 2.24 4.956 4.997 4.956M643.55 645.363c2.763 0 5-2.219 5-4.956 0-2.731-2.237-4.95-5-4.95-2.76 0-5 2.219-5 4.95 0 2.737 2.24 4.956 5 4.956M628.4 660.37c2.762 0 5-2.22 5-4.95 0-2.737-2.238-4.957-5-4.957-2.758 0-4.998 2.22-4.998 4.956 0 2.732 2.24 4.951 4.997 4.951M643.55 660.37c2.763 0 5-2.22 5-4.95 0-2.737-2.237-4.957-5-4.957-2.76 0-5 2.22-5 4.956 0 2.732 2.24 4.951 5 4.951M658.698 675.38c2.762 0 5.003-2.22 5.003-4.954 0-2.737-2.24-4.953-5.003-4.953-2.757 0-4.997 2.216-4.997 4.953 0 2.734 2.24 4.954 4.997 4.954M658.698 690.387c2.762 0 5.003-2.22 5.003-4.951 0-2.737-2.24-4.954-5.003-4.954-2.757 0-4.997 2.217-4.997 4.954 0 2.731 2.24 4.95 4.997 4.95M658.698 705.393c2.762 0 5.003-2.216 5.003-4.95 0-2.737-2.24-4.954-5.003-4.954-2.757 0-4.997 2.217-4.997 4.954 0 2.734 2.24 4.95 4.997 4.95M673.851 705.393c2.757 0 4.998-2.216 4.998-4.95 0-2.737-2.24-4.954-4.998-4.954-2.762 0-5.003 2.217-5.003 4.954 0 2.734 2.24 4.95 5.003 4.95"/>
                </g>
                <g opacity=".407">
                    <path d="M178.287 667.373a4.957 4.957 0 0 0 4.961-4.95 4.958 4.958 0 0 0-4.961-4.957 4.958 4.958 0 0 0-4.958 4.956c0 2.732 2.22 4.95 4.958 4.95M193.317 667.373a4.957 4.957 0 0 0 4.961-4.95 4.958 4.958 0 0 0-4.961-4.957 4.958 4.958 0 0 0-4.958 4.956c0 2.732 2.22 4.95 4.958 4.95M133.194 682.382a4.957 4.957 0 0 0 4.958-4.953 4.955 4.955 0 0 0-4.958-4.954 4.956 4.956 0 0 0-4.961 4.954 4.958 4.958 0 0 0 4.961 4.953M148.224 682.382a4.96 4.96 0 0 0 4.961-4.953 4.958 4.958 0 0 0-4.96-4.954 4.955 4.955 0 0 0-4.96 4.954 4.957 4.957 0 0 0 4.96 4.953M163.257 682.382a4.957 4.957 0 0 0 4.958-4.953 4.955 4.955 0 0 0-4.958-4.954 4.958 4.958 0 0 0-4.961 4.954 4.96 4.96 0 0 0 4.96 4.953M178.287 682.382a4.958 4.958 0 0 0 4.961-4.953 4.956 4.956 0 0 0-4.961-4.954 4.955 4.955 0 0 0-4.958 4.954 4.957 4.957 0 0 0 4.958 4.953M193.317 682.382a4.958 4.958 0 0 0 4.961-4.953 4.956 4.956 0 0 0-4.961-4.954 4.955 4.955 0 0 0-4.958 4.954 4.957 4.957 0 0 0 4.958 4.953M208.35 682.382a4.96 4.96 0 0 0 4.961-4.953 4.958 4.958 0 0 0-4.961-4.954 4.958 4.958 0 0 0-4.961 4.954 4.96 4.96 0 0 0 4.96 4.953M118.161 697.39a4.957 4.957 0 0 0 4.961-4.952 4.956 4.956 0 0 0-4.96-4.953 4.958 4.958 0 0 0-4.962 4.953 4.959 4.959 0 0 0 4.961 4.951M133.194 697.39a4.956 4.956 0 0 0 4.958-4.952 4.955 4.955 0 0 0-4.958-4.953 4.956 4.956 0 0 0-4.961 4.953c0 2.732 2.22 4.951 4.961 4.951M148.224 697.39a4.959 4.959 0 0 0 4.961-4.952 4.958 4.958 0 0 0-4.96-4.953 4.955 4.955 0 0 0-4.96 4.953c0 2.732 2.22 4.951 4.96 4.951M163.257 697.39a4.956 4.956 0 0 0 4.958-4.952 4.955 4.955 0 0 0-4.958-4.953 4.958 4.958 0 0 0-4.961 4.953 4.959 4.959 0 0 0 4.96 4.951M178.287 697.39a4.957 4.957 0 0 0 4.961-4.952 4.956 4.956 0 0 0-4.961-4.953 4.955 4.955 0 0 0-4.958 4.953c0 2.732 2.22 4.951 4.958 4.951M193.317 697.39a4.957 4.957 0 0 0 4.961-4.952 4.956 4.956 0 0 0-4.961-4.953 4.955 4.955 0 0 0-4.958 4.953c0 2.732 2.22 4.951 4.958 4.951M208.35 697.39a4.959 4.959 0 0 0 4.961-4.952 4.958 4.958 0 0 0-4.961-4.953 4.958 4.958 0 0 0-4.961 4.953 4.959 4.959 0 0 0 4.96 4.951M118.161 712.396a4.955 4.955 0 0 0 4.961-4.95 4.956 4.956 0 0 0-4.96-4.954 4.958 4.958 0 0 0-4.962 4.953 4.957 4.957 0 0 0 4.961 4.951M133.194 712.396a4.955 4.955 0 0 0 4.958-4.95 4.955 4.955 0 0 0-4.958-4.954 4.956 4.956 0 0 0-4.961 4.953c0 2.734 2.22 4.951 4.961 4.951M148.224 712.396a4.957 4.957 0 0 0 4.961-4.95 4.958 4.958 0 0 0-4.96-4.954 4.955 4.955 0 0 0-4.96 4.953c0 2.734 2.22 4.951 4.96 4.951M163.257 712.396a4.955 4.955 0 0 0 4.958-4.95 4.955 4.955 0 0 0-4.958-4.954 4.958 4.958 0 0 0-4.961 4.953 4.957 4.957 0 0 0 4.96 4.951M178.287 712.396a4.955 4.955 0 0 0 4.961-4.95 4.956 4.956 0 0 0-4.961-4.954 4.955 4.955 0 0 0-4.958 4.953c0 2.734 2.22 4.951 4.958 4.951M193.317 712.396a4.955 4.955 0 0 0 4.961-4.95 4.956 4.956 0 0 0-4.961-4.954 4.955 4.955 0 0 0-4.958 4.953c0 2.734 2.22 4.951 4.958 4.951M208.35 712.396a4.957 4.957 0 0 0 4.961-4.95 4.958 4.958 0 0 0-4.961-4.954 4.958 4.958 0 0 0-4.961 4.953 4.957 4.957 0 0 0 4.96 4.951M133.194 727.406a4.955 4.955 0 0 0 4.958-4.954c0-2.734-2.22-4.95-4.958-4.95a4.955 4.955 0 0 0-4.961 4.95 4.956 4.956 0 0 0 4.961 4.954M148.224 727.406a4.958 4.958 0 0 0 4.961-4.954 4.957 4.957 0 0 0-4.96-4.95 4.955 4.955 0 0 0-4.96 4.95 4.955 4.955 0 0 0 4.96 4.954M163.257 727.406a4.955 4.955 0 0 0 4.958-4.954c0-2.734-2.22-4.95-4.958-4.95a4.957 4.957 0 0 0-4.961 4.95 4.958 4.958 0 0 0 4.96 4.954M178.287 727.406a4.956 4.956 0 0 0 4.961-4.954c0-2.734-2.22-4.95-4.961-4.95a4.955 4.955 0 0 0-4.958 4.95 4.955 4.955 0 0 0 4.958 4.954"/>
                </g>
            </g>
        </g>                
    </g>
</svg>
