<svg xmlns="http://www.w3.org/2000/svg" width="22" height="22" viewBox="0 0 22 22">
    <g fill="#0B9FDA" fill-rule="evenodd">
        <path fill-rule="nonzero" d="M11 20.706c5.36 0 9.706-4.346 9.706-9.706 0-5.36-4.346-9.706-9.706-9.706-5.36 0-9.706 4.346-9.706 9.706 0 5.36 4.346 9.706 9.706 9.706zM11 22C4.925 22 0 17.075 0 11S4.925 0 11 0s11 4.925 11 11-4.925 11-11 11z"/>
        <path d="M8.214 7.672c0-1.657 1.06-2.19 2.384-1.18l3.473 2.655c1.317 1.007 1.323 2.633 0 3.644l-3.473 2.654c-1.317 1.007-2.384.474-2.384-1.179V7.672z"/>
    </g>
</svg>
