<svg xmlns="http://www.w3.org/2000/svg" xmlns:xlink="http://www.w3.org/1999/xlink" width="33" height="33" viewBox="0 0 33 33">
    <defs>
        <path id="a" d="M0 0v33h33V0H0z"/>
    </defs>
    <g fill="none" fill-rule="evenodd" transform="rotate(180 16.5 16.5)">
        <mask id="b" fill="#fff">
            <use xlink:href="#a"/>
        </mask>
        <path fill="#0B9FDA" d="M32.683 8.349h.002c0-.003.003-.003.003-.006a1.232 1.232 0 0 0 .244-.465c.03-.099.05-.202.056-.307.002-.04.01-.076.007-.116 0-.023.005-.04.005-.06a1.383 1.383 0 0 0-.07-.355c-.003-.01-.01-.02-.016-.033a1.292 1.292 0 0 0-.186-.333c-.012-.012-.015-.032-.028-.045L27.385.365c-.408-.479-1.075-.488-1.492-.018-.416.469-.423 1.239-.016 1.717l2.866 3.379c-4.187-.556-8.304.325-8.5.37C7.534 8.116-1.459 19.854.195 31.974.276 32.575.725 33 1.236 33c.055 0 .11-.005.166-.012.574-.106.967-.728.879-1.39C.808 20.798 9.013 10.31 20.605 8.207c.053-.013 4.305-.924 8.311-.295l-4.423 2.626c-.52.307-.72 1.04-.454 1.637.265.599.902.83 1.42.526l6.972-4.14c.093-.057.179-.13.252-.213z" mask="url(#b)"/>
    </g>
</svg>
