<svg xmlns="http://www.w3.org/2000/svg" width="112" height="16" viewBox="0 0 112 16">
    <g fill="none" fill-rule="nonzero">
        <path fill="#010F15" fill-opacity=".05" d="M8.519.532c.25.38.523.918.793 1.478.269.56.534 1.144.784 1.632.25.486.45.873.741 1.094.292.222.7.302 1.219.4.518.099 1.128.185 1.719.28.59.095 1.163.203 1.586.336.212.066.386.14.498.21.177.084.154.236.107.339a2.479 2.479 0 0 1-.282.475c-.268.368-.67.808-1.095 1.25-.425.441-.872.886-1.236 1.286s-.65.715-.763 1.08c-.112.364-.057.8.013 1.348.07.549.183 1.184.28 1.803.097.619.175 1.224.185 1.685.006.23-.006.426-.035.558-.048.218-.168.218-.287.213a2.258 2.258 0 0 1-.522-.136c-.416-.154-.939-.42-1.47-.708-.53-.288-1.072-.597-1.547-.836-.473-.24-.851-.428-1.208-.428s-.735.188-1.208.428c-.475.24-1.017.548-1.548.836-.53.288-1.054.555-1.47.708-.21.077-.39.124-.521.136-.18.005-.248-.067-.288-.213a2.529 2.529 0 0 1-.036-.558c.01-.461.09-1.065.186-1.684.095-.62.207-1.255.278-1.804.071-.548.126-.983.013-1.348-.113-.364-.4-.68-.764-1.08-.363-.4-.81-.843-1.236-1.286-.423-.441-.827-.881-1.094-1.25a2.475 2.475 0 0 1-.283-.474c-.073-.15.01-.279.107-.34a2.23 2.23 0 0 1 .499-.21c.422-.133.995-.24 1.586-.335.59-.096 1.2-.18 1.719-.28.518-.098.927-.178 1.218-.4.29-.221.49-.607.74-1.094.25-.488.516-1.072.785-1.632.27-.56.542-1.098.793-1.478a2.41 2.41 0 0 1 .343-.431c.179-.16.259-.109.357 0 .098.089.218.24.344.43zM32.175.101c.098.09.218.24.344.431.25.38.523.918.793 1.478.269.56.534 1.144.784 1.632.25.486.45.873.741 1.094.292.222.7.302 1.219.4.518.099 1.128.185 1.719.28.59.095 1.163.203 1.586.336.212.066.386.14.498.21.177.084.154.236.107.339a2.479 2.479 0 0 1-.282.475c-.268.368-.67.808-1.095 1.25-.425.441-.872.886-1.236 1.286s-.65.715-.763 1.08c-.112.364-.057.8.013 1.348.07.549.183 1.184.28 1.803.097.619.175 1.224.185 1.685.006.23-.006.426-.035.558-.048.218-.168.218-.287.213a2.258 2.258 0 0 1-.522-.136c-.416-.154-.939-.42-1.47-.708-.53-.288-1.072-.597-1.547-.836-.473-.24-.851-.428-1.208-.428s-.735.188-1.208.428c-.475.24-1.017.548-1.548.836-.53.288-1.054.555-1.47.708-.21.077-.39.124-.521.136-.18.005-.248-.067-.288-.213a2.529 2.529 0 0 1-.036-.558c.01-.461.09-1.065.186-1.684.095-.62.207-1.255.278-1.804.071-.548.126-.983.013-1.348-.113-.364-.4-.68-.764-1.08-.363-.4-.81-.843-1.236-1.286-.423-.441-.827-.881-1.094-1.25a2.475 2.475 0 0 1-.283-.474c-.073-.15.01-.279.107-.34a2.23 2.23 0 0 1 .499-.21c.422-.133.995-.24 1.586-.335.59-.096 1.2-.18 1.719-.28.518-.098.927-.178 1.218-.4.29-.221.49-.607.74-1.094.25-.488.516-1.072.785-1.632.27-.56.542-1.098.793-1.478a2.41 2.41 0 0 1 .343-.431c.179-.16.259-.109.357 0V.1zM80.175.101c.098.09.218.24.344.431.25.38.523.918.793 1.478.269.56.534 1.144.784 1.632.25.486.45.873.741 1.094.292.222.7.302 1.219.4.518.099 1.128.185 1.719.28.59.095 1.163.203 1.586.336.212.066.386.14.498.21.177.084.154.236.107.339a2.479 2.479 0 0 1-.282.475c-.268.368-.67.808-1.095 1.25-.425.441-.872.886-1.236 1.286s-.65.715-.763 1.08c-.112.364-.057.8.013 1.348.07.549.183 1.184.28 1.803.097.619.175 1.224.185 1.685.006.23-.006.426-.035.558-.048.218-.168.218-.287.213a2.258 2.258 0 0 1-.522-.136c-.416-.154-.939-.42-1.47-.708-.53-.288-1.072-.597-1.547-.836-.473-.24-.851-.428-1.208-.428s-.735.188-1.208.428c-.475.24-1.017.548-1.548.836-.53.288-1.054.555-1.47.708-.21.077-.39.124-.521.136-.18.005-.248-.067-.288-.213a2.529 2.529 0 0 1-.036-.558c.01-.461.09-1.065.186-1.684.095-.62.207-1.255.278-1.804.071-.548.126-.983.013-1.348-.113-.364-.4-.68-.764-1.08-.363-.4-.81-.843-1.236-1.286-.423-.441-.827-.881-1.094-1.25a2.475 2.475 0 0 1-.283-.474c-.073-.15.01-.279.107-.34a2.23 2.23 0 0 1 .499-.21c.422-.133.995-.24 1.586-.335.59-.096 1.2-.18 1.719-.28.518-.098.927-.178 1.218-.4.29-.221.49-.607.74-1.094.25-.488.516-1.072.785-1.632.27-.56.542-1.098.793-1.478a2.41 2.41 0 0 1 .343-.431c.179-.16.259-.109.357 0V.1zM56.175.101c.098.09.218.24.344.431.25.38.523.918.793 1.478.269.56.534 1.144.784 1.632.25.486.45.873.741 1.094.292.222.7.302 1.219.4.518.099 1.128.185 1.719.28.59.095 1.163.203 1.586.336.212.066.386.14.498.21.177.084.154.236.107.339a2.479 2.479 0 0 1-.282.475c-.268.368-.67.808-1.095 1.25-.425.441-.872.886-1.236 1.286s-.65.715-.763 1.08c-.112.364-.057.8.013 1.348.07.549.183 1.184.28 1.803.097.619.175 1.224.185 1.685.006.23-.006.426-.035.558-.048.218-.168.218-.287.213a2.258 2.258 0 0 1-.522-.136c-.416-.154-.939-.42-1.47-.708-.53-.288-1.072-.597-1.547-.836-.473-.24-.851-.428-1.208-.428s-.735.188-1.208.428c-.475.24-1.017.548-1.548.836-.53.288-1.054.555-1.47.708-.21.077-.39.124-.521.136-.18.005-.248-.067-.288-.213a2.529 2.529 0 0 1-.036-.558c.01-.461.09-1.065.186-1.684.095-.62.207-1.255.278-1.804.071-.548.126-.983.013-1.348-.113-.364-.4-.68-.764-1.08-.363-.4-.81-.843-1.236-1.286-.423-.441-.827-.881-1.094-1.25a2.475 2.475 0 0 1-.283-.474c-.073-.15.01-.279.107-.34a2.23 2.23 0 0 1 .499-.21c.422-.133.995-.24 1.586-.335.59-.096 1.2-.18 1.719-.28.518-.098.927-.178 1.218-.4.29-.221.49-.607.74-1.094.25-.488.516-1.072.785-1.632.27-.56.542-1.098.793-1.478a2.41 2.41 0 0 1 .343-.431c.179-.16.259-.109.357 0V.1z"/>
        <path fill="#010F15" fill-opacity=".05" d="M104.175.101c.098.09.218.24.344.431.25.38.523.918.793 1.478.269.56.534 1.144.784 1.632.25.486.45.873.741 1.094.292.222.7.302 1.219.4.518.099 1.128.185 1.719.28.59.095 1.163.203 1.586.336.212.066.386.14.498.21.177.084.154.236.107.339a2.479 2.479 0 0 1-.282.475c-.268.368-.67.808-1.095 1.25-.425.441-.872.886-1.236 1.286s-.65.715-.763 1.08c-.112.364-.057.8.013 1.348.07.549.183 1.184.28 1.803.097.619.175 1.224.185 1.685.006.23-.006.426-.035.558-.048.218-.168.218-.287.213a2.258 2.258 0 0 1-.522-.136c-.416-.154-.939-.42-1.47-.708-.53-.288-1.072-.597-1.547-.836-.473-.24-.851-.428-1.208-.428s-.735.188-1.208.428c-.475.24-1.017.548-1.548.836-.53.288-1.054.555-1.47.708-.21.077-.39.124-.521.136-.18.005-.248-.067-.288-.213a2.529 2.529 0 0 1-.036-.558c.01-.461.09-1.065.186-1.684.095-.62.207-1.255.278-1.804.071-.548.126-.983.013-1.348-.113-.364-.4-.68-.764-1.08-.363-.4-.81-.843-1.236-1.286-.423-.441-.827-.881-1.094-1.25a2.475 2.475 0 0 1-.283-.474c-.073-.15.01-.279.107-.34a2.23 2.23 0 0 1 .499-.21c.422-.133.995-.24 1.586-.335.59-.096 1.2-.18 1.719-.28.518-.098.927-.178 1.218-.4.29-.221.49-.607.74-1.094.25-.488.516-1.072.785-1.632.27-.56.542-1.098.793-1.478a2.41 2.41 0 0 1 .343-.431c.179-.16.259-.109.357 0V.1z"/>
    </g>
</svg>
